<?xml version="1.0" encoding="UTF-8" standalone="no"?>
<!-- Uploaded to: SVG Repo, www.svgrepo.com, Generator: SVG Repo Mixer Tools -->

<svg
   version="1.1"
   id="Layer_1"
   viewBox="0 0 349.418 349.418"
   xml:space="preserve"
   sodipodi:docname="pencil.svg"
   inkscape:version="1.3.1 (91b66b0783, 2023-11-16, custom)"
   xmlns:inkscape="http://www.inkscape.org/namespaces/inkscape"
   xmlns:sodipodi="http://sodipodi.sourceforge.net/DTD/sodipodi-0.dtd"
   xmlns="http://www.w3.org/2000/svg"
   xmlns:svg="http://www.w3.org/2000/svg"><defs
   id="defs6" /><sodipodi:namedview
   id="namedview6"
   pagecolor="#ffffff"
   bordercolor="#000000"
   borderopacity="0.25"
   inkscape:showpageshadow="2"
   inkscape:pageopacity="0.0"
   inkscape:pagecheckerboard="0"
   inkscape:deskcolor="#d1d1d1"
   inkscape:zoom="2.0519836"
   inkscape:cx="174.46533"
   inkscape:cy="174.709"
   inkscape:window-width="1280"
   inkscape:window-height="956"
   inkscape:window-x="0"
   inkscape:window-y="0"
   inkscape:window-maximized="1"
   inkscape:current-layer="Layer_1" />
<g
   id="g6"
   transform="matrix(-1,0,0,1,349.41894,0)">
	<path
   style="fill:#ff8189"
   d="m 72.76,12.484 c -16.644,-16.646 -43.63,-16.644 -60.274,0 -16.645,16.645 -16.645,43.63 0,60.274 l 30.137,30.138 c -16.645,-16.646 -16.645,-43.631 0,-60.275 16.645,-16.644 43.629,-16.644 60.275,0 z"
   id="path1" />
	
		<rect
   x="18.42"
   y="134.27499"
   transform="matrix(-0.7071,-0.7071,0.7071,-0.7071,176.8996,427.0638)"
   style="fill:#f6c65b"
   width="316.95499"
   height="85.239998"
   id="rect1" />
	
		<rect
   x="18.419001"
   y="162.687"
   transform="matrix(-0.7071,-0.7071,0.7071,-0.7071,176.8987,427.0615)"
   style="fill:#f7b334"
   width="316.95499"
   height="28.413"
   id="rect2" />
	
		<rect
   x="-1.671"
   y="182.78"
   transform="matrix(-0.7071,-0.7071,0.7071,-0.7071,128.3952,447.1549)"
   style="fill:#ffa400"
   width="316.95499"
   height="28.413"
   id="rect3" />
	<g
   id="g4">
		<path
   style="fill:#f4dbb2"
   d="m 349.388,343.007 0.023,-0.023 c 0,-8.893 -13.553,-53.93 -21.482,-71.281 -2.067,-4.672 -5.004,-9.053 -8.833,-12.882 -16.645,-16.644 -43.631,-16.644 -60.276,0 -16.644,16.645 -16.644,43.632 0,60.276 3.83,3.829 8.21,6.765 12.881,8.833 17.351,7.929 62.389,21.482 71.281,21.482 l 0.023,-0.023 c 1.685,0.164 3.427,-0.373 4.717,-1.665 1.293,-1.29 1.83,-3.033 1.666,-4.717 z"
   id="path3" />
		<path
   style="fill:#333e48"
   d="m 349.388,343.007 0.023,-0.023 c 0,-3.443 -2.038,-12.319 -4.991,-22.902 -6.635,-1.778 -14.01,-0.082 -19.216,5.124 -5.207,5.206 -6.902,12.58 -5.123,19.217 10.582,2.952 19.458,4.99 22.901,4.99 l 0.023,-0.023 c 1.685,0.164 3.427,-0.373 4.717,-1.665 1.293,-1.291 1.83,-3.034 1.666,-4.718 z"
   id="path4" />
	</g>
	<path
   style="fill:#7d868c"
   d="m 94.973,34.698 c -16.645,-16.645 -43.63,-16.645 -60.274,0 -16.645,16.645 -16.645,43.629 0,60.273 l 30.137,30.138 c -16.644,-16.644 -16.645,-43.63 0,-60.274 16.645,-16.645 43.631,-16.645 60.275,0 z"
   id="path5" />
	<path
   style="fill:#5c6670"
   d="m 102.897,42.621 c -16.646,-16.644 -43.63,-16.644 -60.275,0 -16.645,16.645 -16.645,43.63 0,60.275 l 7.499,7.498 c -16.644,-16.644 -16.644,-43.63 0,-60.274 16.644,-16.644 43.63,-16.644 60.274,0 z"
   id="path6" />
</g>
</svg>
